<?xml version="1.0" encoding="utf-8"?>
<!-- Generator: Adobe Illustrator 24.1.2, SVG Export Plug-In . SVG Version: 6.00 Build 0)  -->
<svg version="1.1" id="Capa_1" xmlns="http://www.w3.org/2000/svg" xmlns:xlink="http://www.w3.org/1999/xlink" x="0px" y="0px"
	 viewBox="0 0 512 512" style="enable-background:new 0 0 512 512;" xml:space="preserve">
<style type="text/css">
	.st0{fill:#03AA6F;}
	.st1{fill:#86DAF1;}
	.st2{fill:#5FC1BC;}
	.st3{fill:#7DE2E2;}
	.st4{fill:#66D3D0;}
	.st5{fill:#BDFAFF;}
	.st6{fill:#A0F0F2;}
</style>
<g>
	<path class="st0" d="M441.4,79.5l-26.5,17.7l-44.1-8.8l-26.5-8.8L309,88.3l-26.5-8.8l17.7-35.3h35.3L370,26.9
		C396.7,40.1,420.9,57.9,441.4,79.5z"/>
	<path class="st0" d="M238.3,44.2l-8.8,26.5L203,79.5l-26.5,44.1l-44.1,26.5L70.6,159v26.5l17.7,17.7v35.3l-26.5-17.7l-26.5-17.7
		l-15.4-46.2c26.4-63,77-112.8,140.4-138.3l25.1,16.8L238.3,44.2z"/>
	<polygon class="st0" points="256,291.4 247.2,335.5 211.8,370.8 211.8,397.3 176.5,423.8 176.5,468 150,459.1 132.4,415 
		132.4,326.7 88.2,317.9 70.6,282.6 70.6,256.1 88.2,238.4 114.7,211.9 132.4,247.3 194.2,247.3 220.7,291.4 	"/>
	<path class="st0" d="M479.3,131c48.2,86,42.7,192-14.1,272.5l-23.8-23.8v-35.3l-17.7-35.3l-17.7-35.3v-35.3l-26.5-17.7l-35.3,8.8
		l-61.8-26.5l-8.8-61.8l26.5-26.5h53l17.7,26.5l53,8.8l53-17.7L479.3,131z"/>
</g>
<path class="st1" d="M309,88.3l35.3-8.8l26.5,8.8l44.1,8.8l26.5-17.7c14.8,15.5,27.5,32.8,38,51.5l-2.6,1.5l-53,17.7l-53-8.8
	l-17.7-26.5h-53l-26.5,26.5l8.8,61.8l61.8,26.5l35.3-8.8l26.5,17.7v35.3l17.7,35.3l17.7,35.3v35.3l23.8,23.8
	C383.7,519,223.9,546.6,108.4,465.1C10.3,395.8-26.5,267.7,19.9,156.9l15.4,46.2l26.5,17.7l26.5,17.7l-17.7,17.7v26.5l17.7,35.3
	l44.1,8.8V415l17.7,44.1l26.5,8.8v-44.1l35.3-26.5v-26.5l35.3-35.3l8.8-44.1h-35.3l-26.5-44.1h-61.8l-17.7-35.3l-26.5,26.5v-35.3
	l-17.7-17.7V159l61.8-8.8l44.1-26.5L203,79.5l26.5-8.8l8.8-26.5l-53-8.8l-25.1-16.8C228.2-8.7,304.5-5.7,370,26.9l-34.6,17.3h-35.3
	l-17.7,35.3L309,88.3z"/>
<path class="st2" d="M217.6,236.8L80.3,308.1c-14.9,7.7-14.8,29.2,0.2,36.7l138.2,69.4c25.8,13,56.3,13,82.1,0L439,344.8
	c15-7.6,15.2-29,0.2-36.7l-137.4-71.3C275.5,223.1,244,223.1,217.6,236.8z"/>
<path class="st3" d="M217.6,157.8L80.3,229.1c-14.9,7.7-14.8,29.2,0.2,36.7l138.2,69.4c25.8,13,56.3,13,82.1,0L439,265.8
	c15-7.6,15.2-29,0.2-36.7l-137.4-71.3C275.5,144.1,244,144.1,217.6,157.8z"/>
<path class="st4" d="M300.8,335.2l96.9-48.7l-95.9-49.7c-26.4-13.7-57.9-13.7-84.3,0l-95.9,49.7l96.9,48.7
	C244.5,348.2,275,348.2,300.8,335.2z"/>
<path class="st5" d="M217.6,78.9L80.3,150.2c-14.9,7.7-14.8,29.2,0.2,36.7l138.2,69.4c25.8,13,56.3,13,82.1,0L439,186.9
	c15-7.6,15.2-29,0.2-36.7L301.9,78.9C275.5,65.2,244,65.2,217.6,78.9z"/>
<path class="st6" d="M300.8,256.3l96.9-48.7l-95.9-49.7c-26.4-13.7-57.9-13.7-84.3,0l-95.9,49.7l96.9,48.7
	C244.5,269.3,275,269.3,300.8,256.3z"/>
<path class="st3" d="M300.8,256.3l19.6-9.9l-18.5-9.6c-26.4-13.7-57.9-13.7-84.3,0l-18.5,9.6l19.6,9.9
	C244.5,269.3,275,269.3,300.8,256.3z"/>
<path d="M259.8,271.7c-15,0-30-3.4-43.7-10.3L77.9,192c-8.9-4.5-14.5-13.4-14.5-23.4c-0.1-10,5.4-19,14.2-23.6L215,73.8
	c28.1-14.6,61.5-14.6,89.6,0l137.4,71.3c8.8,4.6,14.3,13.6,14.2,23.6s-5.6,18.9-14.5,23.4l-138.2,69.4
	C289.8,268.3,274.8,271.7,259.8,271.7z M217.6,78.9l2.6,5.1L82.9,155.3c-5.1,2.6-8.1,7.6-8,13.3c0,5.7,3.1,10.6,8.2,13.2l138.2,69.4
	c24.1,12.1,52.9,12.1,77,0l138.2-69.4c5.1-2.6,8.2-7.5,8.2-13.2c0-5.7-3-10.7-8-13.3L299.3,84c-24.7-12.8-54.3-12.8-79,0L217.6,78.9
	z"/>
<path d="M259.8,350.7c-15,0-30-3.4-43.7-10.3L77.9,271c-8.9-4.5-14.5-13.4-14.5-23.4c-0.1-10,5.4-19,14.2-23.6l41.5-21.5l5.3,10.2
	l-41.5,21.5c-5.1,2.6-8.1,7.6-8,13.3c0,5.7,3.1,10.6,8.2,13.2l138.2,69.4c24.1,12.1,52.9,12.1,77,0l138.2-69.4
	c5.1-2.6,8.2-7.5,8.2-13.2c0-5.7-3-10.7-8-13.3l-41.5-21.5l5.3-10.2l41.5,21.5c8.8,4.6,14.3,13.6,14.2,23.6
	c-0.1,10-5.6,18.9-14.5,23.4l-138.2,69.4C289.8,347.3,274.8,350.7,259.8,350.7z"/>
<path d="M199.1,252.2c-2.1,0-4.1-1.1-5.1-3.1c-1.5-2.8-0.4-6.3,2.5-7.8l18.5-9.6c26.2-13.6,56.7-14.6,83.8-2.8
	c2.9,1.3,4.2,4.7,3,7.6c-1.3,2.9-4.7,4.2-7.6,3c-23.8-10.4-50.8-9.5-73.9,2.5l-18.5,9.6C200.9,252,200,252.2,199.1,252.2z"/>
<path d="M259.8,429.6c-15,0-30-3.4-43.7-10.3L77.9,349.9c-8.9-4.5-14.5-13.4-14.5-23.4c-0.1-10,5.4-19,14.2-23.6l95.2-49.4
	c2.8-1.5,6.3-0.4,7.8,2.5c1.5,2.8,0.4,6.3-2.5,7.8l-95.2,49.4c-5.1,2.6-8,7.6-8,13.3c0,5.7,3.1,10.6,8.2,13.2l138.2,69.4
	c24.1,12.1,52.9,12.1,77,0l138.2-69.4c5.1-2.6,8.2-7.5,8.2-13.2c0-5.7-3-10.7-8-13.3l-118.8-61.7c-2.8-1.5-3.9-4.9-2.5-7.8
	c1.5-2.8,4.9-3.9,7.8-2.5L441.9,303c8.8,4.6,14.3,13.6,14.2,23.6c-0.1,10-5.6,18.9-14.5,23.4l-138.2,69.4
	C289.8,426.2,274.8,429.6,259.8,429.6z"/>
<path d="M121.8,213.4c-2.1,0-4.1-1.1-5.1-3.1c-1.5-2.8-0.4-6.3,2.5-7.8l95.9-49.7c28.1-14.6,61.5-14.6,89.6,0c0,0,10.6,4.4,7.4,10.3
	c-3.1,5.9-12.7-0.1-12.7-0.1c-24.7-12.8-54.3-12.8-79,0l-95.9,49.7C123.6,213.1,122.7,213.4,121.8,213.4z"/>
<path d="M397.8,213.4c-0.9,0-1.8-0.2-2.6-0.7l-68.6-35.6c-2.8-1.5-3.9-4.9-2.5-7.8c1.5-2.8,4.9-3.9,7.8-2.5l68.6,35.6
	c2.8,1.5,3.9,4.9,2.5,7.8C401.9,212.2,399.8,213.4,397.8,213.4z"/>
</svg>
