<?xml version="1.0" encoding="utf-8"?>
<!-- Generator: Adobe Illustrator 24.3.0, SVG Export Plug-In . SVG Version: 6.00 Build 0)  -->
<svg version="1.1" id="Layer_1" xmlns="http://www.w3.org/2000/svg" xmlns:xlink="http://www.w3.org/1999/xlink" x="0px" y="0px"
	 viewBox="30 36.5 411.06 139.6" style="enable-background:new 30 36.5 411.06 139.6;" xml:space="preserve">
<style type="text/css">
	.st0{fill:#aaa;}
	.st1{fill:#FFF;}
	.st2{fill:url(#SVGID_1_);}
	.st3{fill:#1165A2;}
</style>
<linearGradient id="SVGID_1_" gradientUnits="userSpaceOnUse" x1="100.0686" y1="44.6492" x2="100.0686" y2="168.0718">
	<stop  offset="0" style="stop-color:#3D92CD"/>
	<stop  offset="1" style="stop-color:#004966"/>
</linearGradient>
<g>
	<path class="st0" d="M189.01,81.84V55.23h5.73l10.8,18.28V55.23h5.4v26.61h-5.65l-10.88-18.28v18.28H189.01z"/>
	<path class="st0" d="M227.08,79.4c-0.66,1.02-1.53,1.8-2.6,2.34c-1.07,0.54-2.32,0.8-3.74,0.8c-1.92,0-3.38-0.54-4.41-1.62
		c-1.02-1.08-1.54-2.62-1.54-4.63c0-1.85,0.51-3.27,1.54-4.25c1.02-0.98,2.73-1.64,5.11-2.01c0.28-0.05,0.59-0.09,0.94-0.14
		c0.35-0.04,0.75-0.09,1.19-0.15c2.23-0.29,3.34-0.93,3.34-1.93c0-0.79-0.25-1.36-0.74-1.71c-0.49-0.34-1.32-0.52-2.47-0.52
		c-1.06,0-1.87,0.21-2.44,0.62c-0.57,0.42-0.85,1.02-0.85,1.82v0.29h-4.91v-0.36c0-2.02,0.71-3.6,2.13-4.73
		c1.42-1.16,3.38-1.73,5.89-1.73c2.76,0,4.87,0.47,6.32,1.42c1.46,0.95,2.19,2.32,2.19,4.13v11.17c0,0.82,0.08,1.43,0.25,1.83
		c0.17,0.4,0.45,0.71,0.85,0.91v0.89h-5.47C227.3,81.16,227.1,80.35,227.08,79.4z M226.99,72.17c-0.87,0.41-1.86,0.73-2.96,0.96
		c-1.11,0.24-1.68,0.37-1.72,0.38c-0.47,0.13-0.86,0.28-1.17,0.44c-0.31,0.16-0.57,0.35-0.77,0.55c-0.2,0.21-0.34,0.44-0.42,0.71
		c-0.08,0.27-0.13,0.58-0.13,0.93c0,0.72,0.24,1.3,0.71,1.73c0.47,0.43,1.1,0.64,1.9,0.64c0.71,0,1.35-0.1,1.92-0.31
		c0.57-0.2,1.04-0.5,1.44-0.89c0.39-0.39,0.69-0.86,0.9-1.42c0.21-0.55,0.32-1.17,0.32-1.86V72.17z"/>
	<path class="st0" d="M245.1,81.98l-1.73,0.05c-0.67,0.04-1.1,0.05-1.26,0.05c-2.01,0-3.39-0.37-4.14-1.12
		c-0.73-0.75-1.1-2.23-1.1-4.46V65.89h-2.6V62.2h2.6v-5.37h5.2v5.37h3.04v3.69h-3.04v10.88c0,0.53,0.11,0.87,0.34,1.03
		c0.23,0.16,0.7,0.23,1.41,0.23h1.28V81.98z"/>
	<path class="st0" d="M248.16,60.01v-4.79h5.26v4.79H248.16z M248.16,81.84V62.2h5.26v19.64H248.16z"/>
	<path  class="st0" d="M256.8,71.99c0-3.26,0.88-5.83,2.66-7.7c1.77-1.87,4.2-2.8,7.3-2.8c3.08,0,5.51,0.93,7.28,2.8
		c1.78,1.85,2.67,4.42,2.67,7.7c0,3.29-0.89,5.86-2.67,7.71c-1.77,1.87-4.2,2.8-7.28,2.8c-3.1,0-5.53-0.93-7.3-2.8
		C257.69,77.85,256.8,75.28,256.8,71.99z M262.13,71.99c0,1.96,0.4,3.47,1.19,4.53c0.79,1.05,1.94,1.58,3.43,1.58
		c1.46,0,2.59-0.53,3.39-1.58c0.8-1.05,1.2-2.56,1.2-4.53c0-1.95-0.39-3.45-1.18-4.5c-0.79-1.05-1.92-1.57-3.41-1.57
		c-1.49,0-2.64,0.52-3.43,1.57S262.13,70.04,262.13,71.99z"/>
	<path class="st0" d="M279.93,81.84V62.2h5.15v2.33c0.73-0.95,1.6-1.67,2.59-2.14c0.99-0.48,2.11-0.71,3.35-0.71
		c4.32,0,6.49,2.26,6.49,6.77v13.39h-5.26V69.97c0-1.41-0.24-2.41-0.71-3.02c-0.48-0.6-1.25-0.9-2.32-0.9
		c-0.61,0-1.17,0.1-1.67,0.29c-0.5,0.19-0.92,0.47-1.27,0.82c-0.35,0.35-0.62,0.79-0.8,1.3c-0.19,0.51-0.28,1.09-0.28,1.73v11.65
		H279.93z"/>
	<path class="st0" d="M312.97,79.4c-0.66,1.02-1.53,1.8-2.6,2.34c-1.07,0.54-2.32,0.8-3.74,0.8c-1.92,0-3.38-0.54-4.41-1.62
		c-1.02-1.08-1.54-2.62-1.54-4.63c0-1.85,0.51-3.27,1.54-4.25s2.73-1.64,5.11-2.01c0.28-0.05,0.59-0.09,0.94-0.14
		c0.35-0.04,0.75-0.09,1.19-0.15c2.23-0.29,3.34-0.93,3.34-1.93c0-0.79-0.25-1.36-0.74-1.71c-0.49-0.34-1.32-0.52-2.48-0.52
		c-1.06,0-1.87,0.21-2.44,0.62c-0.57,0.42-0.85,1.02-0.85,1.82v0.29h-4.91v-0.36c0-2.02,0.71-3.6,2.13-4.73
		c1.42-1.16,3.38-1.73,5.89-1.73c2.76,0,4.87,0.47,6.32,1.42c1.46,0.95,2.19,2.32,2.19,4.13v11.17c0,0.82,0.08,1.43,0.25,1.83
		c0.17,0.4,0.45,0.71,0.85,0.91v0.89h-5.47C313.19,81.16,313,80.35,312.97,79.4z M312.88,72.17c-0.87,0.41-1.85,0.73-2.96,0.96
		c-1.11,0.24-1.68,0.37-1.72,0.38c-0.47,0.13-0.86,0.28-1.17,0.44c-0.31,0.16-0.57,0.35-0.77,0.55c-0.2,0.21-0.34,0.44-0.42,0.71
		c-0.08,0.27-0.13,0.58-0.13,0.93c0,0.72,0.23,1.3,0.7,1.73c0.47,0.43,1.1,0.64,1.9,0.64c0.71,0,1.35-0.1,1.92-0.31
		c0.57-0.2,1.04-0.5,1.44-0.89c0.39-0.39,0.69-0.86,0.9-1.42c0.21-0.55,0.32-1.17,0.32-1.86V72.17z"/>
	<path class="st0" d="M322.27,81.84V55.23h5.26v26.61H322.27z"/>
	<path class="st0" d="M187.85,104.56c0-4.3,1.17-7.71,3.5-10.23c2.35-2.53,5.51-3.79,9.49-3.79s7.14,1.26,9.48,3.79
		c2.36,2.52,3.54,5.93,3.54,10.23s-1.18,7.71-3.54,10.23c-2.35,2.53-5.51,3.79-9.48,3.79s-7.14-1.26-9.49-3.79
		C189.02,112.24,187.85,108.84,187.85,104.56z M193.44,104.56c0,2.93,0.65,5.2,1.95,6.83c1.3,1.61,3.12,2.42,5.46,2.42
		c2.35,0,4.18-0.81,5.51-2.42c1.31-1.61,1.97-3.89,1.97-6.83c0-2.94-0.66-5.21-1.97-6.81c-1.33-1.63-3.16-2.44-5.51-2.44
		c-2.34,0-4.16,0.81-5.46,2.42C194.09,99.34,193.44,101.62,193.44,104.56z"/>
	<path class="st0" d="M234.61,110.43c-0.22,2.49-1.13,4.46-2.73,5.91c-1.61,1.45-3.67,2.17-6.18,2.17c-2.85,0-5.09-0.93-6.72-2.78
		c-1.61-1.87-2.42-4.44-2.42-7.73c0-3.26,0.82-5.83,2.47-7.7c1.66-1.87,3.94-2.8,6.85-2.8c2.54,0,4.58,0.67,6.11,2.02
		c1.54,1.36,2.4,3.24,2.58,5.64h-5.22c-0.14-1.06-0.51-1.86-1.09-2.41c-0.58-0.55-1.36-0.82-2.34-0.82c-2.59,0-3.88,2.05-3.88,6.14
		c0,1.9,0.33,3.36,0.99,4.37c0.66,1.01,1.63,1.52,2.89,1.52c1.97,0,3.14-1.17,3.5-3.52H234.61z"/>
	<path class="st0" d="M255.08,111.88c-0.52,2.07-1.59,3.7-3.22,4.88c-1.6,1.17-3.56,1.75-5.87,1.75c-2.84,0-5.09-0.95-6.76-2.85
		c-1.66-1.91-2.49-4.5-2.49-7.77c0-3.22,0.82-5.75,2.46-7.61c1.64-1.85,3.88-2.78,6.72-2.78c3,0,5.32,0.92,6.97,2.75
		c1.64,1.82,2.46,4.41,2.46,7.79c0,0.37,0,0.65-0.01,0.84c-0.01,0.19-0.02,0.36-0.04,0.53h-13.12c0.14,3.11,1.5,4.66,4.06,4.66
		c0.9,0,1.64-0.17,2.22-0.52c0.58-0.35,1.04-0.9,1.37-1.66H255.08z M249.91,105.95c-0.05-1.34-0.4-2.35-1.05-3.04
		s-1.6-1.03-2.84-1.03c-1.16,0-2.06,0.35-2.71,1.05c-0.65,0.7-1.03,1.7-1.14,3.02H249.91z"/>
	<path class="st0" d="M269.78,115.4c-0.66,1.02-1.53,1.8-2.6,2.34s-2.32,0.8-3.74,0.8c-1.92,0-3.38-0.54-4.41-1.62
		c-1.02-1.08-1.54-2.62-1.54-4.63c0-1.85,0.51-3.27,1.54-4.25c1.02-0.98,2.73-1.64,5.11-2.01c0.28-0.05,0.59-0.09,0.94-0.14
		c0.35-0.04,0.75-0.09,1.19-0.15c2.23-0.29,3.34-0.93,3.34-1.93c0-0.79-0.25-1.36-0.74-1.71c-0.49-0.34-1.32-0.52-2.47-0.52
		c-1.06,0-1.87,0.21-2.44,0.62c-0.57,0.42-0.85,1.02-0.85,1.82v0.29h-4.91v-0.36c0-2.02,0.71-3.6,2.13-4.73
		c1.42-1.16,3.38-1.73,5.89-1.73c2.76,0,4.87,0.47,6.32,1.42c1.46,0.95,2.19,2.32,2.19,4.13v11.17c0,0.82,0.08,1.43,0.25,1.83
		s0.45,0.71,0.85,0.91v0.89h-5.47C270,117.16,269.81,116.35,269.78,115.4z M269.69,108.17c-0.87,0.41-1.86,0.73-2.96,0.96
		c-1.11,0.24-1.68,0.37-1.72,0.38c-0.47,0.13-0.86,0.28-1.17,0.44c-0.31,0.16-0.57,0.35-0.77,0.55c-0.2,0.21-0.34,0.44-0.42,0.71
		c-0.08,0.27-0.13,0.58-0.13,0.93c0,0.72,0.24,1.3,0.71,1.73c0.47,0.43,1.1,0.64,1.9,0.64c0.71,0,1.35-0.1,1.92-0.31
		c0.57-0.2,1.04-0.5,1.44-0.89c0.39-0.39,0.69-0.86,0.9-1.42c0.21-0.55,0.32-1.17,0.32-1.86V108.17z"/>
	<path class="st0" d="M278.94,117.84V98.2h5.15v2.33c0.73-0.95,1.6-1.67,2.59-2.14c0.99-0.48,2.11-0.71,3.35-0.71
		c4.32,0,6.49,2.26,6.49,6.77v13.39h-5.26v-11.87c0-1.41-0.24-2.41-0.71-3.02c-0.48-0.6-1.25-0.9-2.32-0.9
		c-0.61,0-1.17,0.1-1.67,0.29c-0.5,0.19-0.92,0.47-1.27,0.82c-0.35,0.35-0.62,0.79-0.8,1.3c-0.19,0.51-0.28,1.09-0.28,1.73v11.65
		H278.94z"/>
	<path class="st0" d="M299.71,107.99c0-3.26,0.88-5.83,2.66-7.7c1.77-1.87,4.2-2.8,7.3-2.8c3.08,0,5.51,0.93,7.28,2.8
		c1.78,1.85,2.67,4.42,2.67,7.7c0,3.29-0.89,5.86-2.67,7.71c-1.77,1.87-4.2,2.8-7.28,2.8c-3.1,0-5.53-0.93-7.3-2.8
		C300.6,113.85,299.71,111.28,299.71,107.99z M305.04,107.99c0,1.96,0.4,3.47,1.19,4.53c0.79,1.05,1.94,1.58,3.43,1.58
		c1.46,0,2.59-0.53,3.39-1.58c0.8-1.05,1.2-2.56,1.2-4.53c0-1.95-0.39-3.45-1.18-4.5c-0.79-1.05-1.92-1.57-3.41-1.57
		c-1.49,0-2.64,0.52-3.43,1.57S305.04,106.04,305.04,107.99z"/>
	<path class="st0" d="M328.23,119.72c0.34,1.31,1.38,1.97,3.14,1.97c1.64,0,2.78-0.35,3.43-1.05c0.65-0.69,0.98-1.96,0.98-3.83
		v-1.75c-0.55,0.95-1.27,1.65-2.15,2.1c-0.88,0.45-1.99,0.68-3.32,0.68c-2.54,0-4.58-0.9-6.11-2.71c-1.53-1.82-2.29-4.23-2.29-7.24
		c0-3.19,0.75-5.71,2.24-7.57c1.49-1.88,3.52-2.82,6.07-2.82c1.34,0,2.47,0.25,3.4,0.75c0.93,0.5,1.69,1.27,2.28,2.32V98.2h4.99
		v18.34c0,2.05-0.19,3.62-0.58,4.71c-0.37,1.06-1.03,1.97-1.97,2.73c-0.79,0.61-1.8,1.08-3.02,1.4c-1.22,0.32-2.61,0.48-4.19,0.48
		c-2.63,0-4.69-0.54-6.2-1.61c-1.49-1.06-2.31-2.57-2.44-4.52L328.23,119.72z M327.24,107.7c0,1.85,0.37,3.27,1.1,4.25
		c0.73,0.98,1.79,1.47,3.18,1.47c1.38,0,2.44-0.49,3.17-1.47c0.73-0.98,1.09-2.42,1.09-4.33c0-1.81-0.38-3.2-1.13-4.17
		c-0.75-0.98-1.82-1.46-3.21-1.46c-1.35,0-2.39,0.5-3.12,1.49C327.6,104.48,327.24,105.88,327.24,107.7z"/>
	<path class="st0" d="M345.08,117.84V98.2h4.88v3.36c0.69-1.35,1.49-2.34,2.4-2.97c0.92-0.63,2-0.95,3.27-0.95
		c0.21,0,0.36,0,0.48,0.01c0.11,0.01,0.21,0.02,0.28,0.03l0.02,5.33h-1.75c-2.88,0-4.32,1.48-4.32,4.44v10.39H345.08z"/>
	<path class="st0" d="M370.28,115.4c-0.66,1.02-1.53,1.8-2.6,2.34s-2.32,0.8-3.74,0.8c-1.92,0-3.38-0.54-4.41-1.62
		c-1.02-1.08-1.54-2.62-1.54-4.63c0-1.85,0.51-3.27,1.54-4.25c1.02-0.98,2.73-1.64,5.11-2.01c0.28-0.05,0.59-0.09,0.94-0.14
		c0.35-0.04,0.75-0.09,1.19-0.15c2.23-0.29,3.34-0.93,3.34-1.93c0-0.79-0.25-1.36-0.74-1.71c-0.49-0.34-1.32-0.52-2.47-0.52
		c-1.06,0-1.87,0.21-2.44,0.62c-0.57,0.42-0.85,1.02-0.85,1.82v0.29h-4.91v-0.36c0-2.02,0.71-3.6,2.13-4.73
		c1.42-1.16,3.38-1.73,5.89-1.73c2.76,0,4.87,0.47,6.32,1.42c1.46,0.95,2.19,2.32,2.19,4.13v11.17c0,0.82,0.08,1.43,0.25,1.83
		s0.45,0.71,0.85,0.91v0.89h-5.47C370.5,117.16,370.3,116.35,370.28,115.4z M370.19,108.17c-0.87,0.41-1.86,0.73-2.96,0.96
		c-1.11,0.24-1.68,0.37-1.72,0.38c-0.47,0.13-0.86,0.28-1.17,0.44c-0.31,0.16-0.57,0.35-0.77,0.55c-0.2,0.21-0.34,0.44-0.42,0.71
		c-0.08,0.27-0.13,0.58-0.13,0.93c0,0.72,0.24,1.3,0.71,1.73c0.47,0.43,1.1,0.64,1.9,0.64c0.71,0,1.35-0.1,1.92-0.31
		c0.57-0.2,1.04-0.5,1.44-0.89c0.39-0.39,0.69-0.86,0.9-1.42c0.21-0.55,0.32-1.17,0.32-1.86V108.17z"/>
	<path class="st0" d="M379.5,125.72V98.2h5v2.66c0.76-1.16,1.61-2,2.54-2.53c0.93-0.53,2.03-0.79,3.3-0.79
		c2.42,0,4.38,0.96,5.89,2.87c1.5,1.9,2.26,4.41,2.26,7.52c0,3.13-0.75,5.69-2.26,7.66c-1.51,1.95-3.45,2.93-5.82,2.93
		c-1.26,0-2.38-0.26-3.36-0.79c-0.98-0.52-1.79-1.3-2.44-2.32v10.32H379.5z M393.27,108.14c0-1.99-0.37-3.5-1.12-4.53
		c-0.75-1.04-1.83-1.55-3.25-1.55c-1.41,0-2.48,0.51-3.2,1.54c-0.72,1.03-1.08,2.54-1.08,4.54c0,1.87,0.38,3.3,1.14,4.31
		c0.76,1.01,1.84,1.51,3.25,1.51c1.32,0,2.37-0.52,3.12-1.55C392.89,111.38,393.27,109.96,393.27,108.14z"/>
	<path class="st0" d="M401.84,117.84V91.23h5.22v9.14c1.43-1.79,3.38-2.69,5.83-2.69c1.17,0,2.22,0.2,3.14,0.6s1.68,0.96,2.26,1.7
		c0.38,0.47,0.66,1.04,0.83,1.7c0.17,0.65,0.25,1.67,0.25,3.07v0.36v12.74h-5.22v-10.28c0-2.44-0.22-3.97-0.67-4.57
		c-0.45-0.63-1.25-0.94-2.4-0.94c-0.61,0-1.17,0.1-1.67,0.29c-0.5,0.19-0.92,0.47-1.27,0.82c-0.35,0.35-0.62,0.79-0.8,1.3
		c-0.19,0.51-0.28,1.09-0.28,1.73v11.65H401.84z"/>
	<path class="st0" d="M423.9,121.47c0.17,0.02,0.34,0.04,0.52,0.05c0.18,0.01,0.42,0.02,0.7,0.02c2.07,0,3.11-0.98,3.11-2.93
		c0-0.07-0.01-0.16-0.04-0.27s-0.05-0.2-0.07-0.27l-7.08-19.87h5.78l4.14,14.16l4.03-14.16h5.53l-8.08,23.16
		c-0.59,1.72-1.34,2.9-2.26,3.54s-2.27,0.96-4.06,0.96c-0.33,0-0.67-0.01-1.05-0.04c-0.37-0.02-0.77-0.06-1.17-0.11V121.47z"/>
	<path class="st0" d="M212.17,144.7c-0.19,3.01-1.36,5.41-3.5,7.21c-2.11,1.78-4.88,2.67-8.31,2.67c-3.95,0-7.02-1.23-9.2-3.69
		c-2.18-2.44-3.27-5.89-3.27-10.33c0-4.53,1.11-8,3.34-10.41c2.23-2.41,5.43-3.61,9.61-3.61c3.38,0,6.06,0.83,8.04,2.49
		c1.96,1.64,3.05,3.97,3.25,7.01h-5.4c-0.23-1.52-0.84-2.67-1.83-3.45c-0.99-0.78-2.35-1.17-4.06-1.17c-2.42,0-4.25,0.77-5.5,2.31
		c-1.25,1.54-1.87,3.82-1.87,6.83c0,2.9,0.62,5.14,1.86,6.7c1.25,1.58,3.03,2.37,5.33,2.37c1.67,0,3.04-0.42,4.09-1.26
		c1.05-0.84,1.74-2.07,2.05-3.67H212.17z"/>
	<path class="st0" d="M233.11,147.88c-0.52,2.07-1.59,3.7-3.22,4.88c-1.6,1.17-3.56,1.75-5.87,1.75c-2.84,0-5.09-0.95-6.76-2.85
		c-1.66-1.92-2.49-4.5-2.49-7.77c0-3.22,0.82-5.75,2.46-7.61c1.64-1.85,3.88-2.78,6.72-2.78c3,0,5.32,0.92,6.97,2.75
		c1.64,1.82,2.46,4.41,2.46,7.79c0,0.37,0,0.65-0.01,0.84c-0.01,0.19-0.02,0.36-0.05,0.53h-13.12c0.14,3.11,1.5,4.66,4.07,4.66
		c0.9,0,1.64-0.17,2.22-0.52s1.04-0.9,1.37-1.66H233.11z M227.95,141.95c-0.05-1.34-0.4-2.35-1.05-3.04s-1.6-1.03-2.84-1.03
		c-1.16,0-2.06,0.35-2.71,1.05c-0.65,0.7-1.03,1.71-1.14,3.02H227.95z"/>
	<path class="st0" d="M236.61,153.84V134.2h5.15v2.33c0.73-0.95,1.6-1.67,2.59-2.14c0.99-0.48,2.11-0.71,3.35-0.71
		c4.32,0,6.49,2.26,6.49,6.77v13.39h-5.26v-11.87c0-1.41-0.24-2.41-0.71-3.02c-0.48-0.6-1.25-0.9-2.32-0.9
		c-0.61,0-1.17,0.1-1.67,0.29s-0.92,0.47-1.27,0.82c-0.35,0.35-0.62,0.79-0.8,1.3c-0.19,0.51-0.28,1.09-0.28,1.72v11.65H236.61z"/>
	<path class="st0" d="M267.15,153.98l-1.73,0.05c-0.67,0.04-1.1,0.05-1.26,0.05c-2.01,0-3.39-0.37-4.14-1.12
		c-0.74-0.75-1.1-2.23-1.1-4.46v-10.62h-2.6v-3.69h2.6v-5.37h5.2v5.37h3.04v3.69h-3.04v10.88c0,0.53,0.11,0.87,0.34,1.03
		c0.23,0.16,0.7,0.23,1.41,0.23h1.28V153.98z"/>
	<path class="st0" d="M270.1,153.84V134.2h4.88v3.36c0.69-1.35,1.49-2.34,2.4-2.97c0.92-0.63,2-0.95,3.27-0.95
		c0.21,0,0.36,0,0.48,0.01c0.11,0.01,0.21,0.02,0.28,0.03l0.02,5.33h-1.75c-2.88,0-4.32,1.48-4.32,4.44v10.39H270.1z"/>
	<path class="st0" d="M301.38,147.88c-0.52,2.07-1.59,3.7-3.22,4.88c-1.6,1.17-3.56,1.75-5.87,1.75c-2.84,0-5.09-0.95-6.76-2.85
		c-1.66-1.92-2.49-4.5-2.49-7.77c0-3.22,0.82-5.75,2.46-7.61c1.64-1.85,3.88-2.78,6.72-2.78c3,0,5.32,0.92,6.97,2.75
		c1.64,1.82,2.46,4.41,2.46,7.79c0,0.37,0,0.65-0.01,0.84c-0.01,0.19-0.02,0.36-0.05,0.53h-13.12c0.14,3.11,1.5,4.66,4.07,4.66
		c0.9,0,1.64-0.17,2.22-0.52s1.04-0.9,1.37-1.66H301.38z M296.22,141.95c-0.05-1.34-0.4-2.35-1.05-3.04s-1.6-1.03-2.84-1.03
		c-1.16,0-2.06,0.35-2.71,1.05c-0.65,0.7-1.03,1.71-1.14,3.02H296.22z"/>
	<circle class="st1" cx="99.92" cy="106.3" r="67.54"/>
	<path class="st2" d="M156.32,81.37c2.98,6.7,4.6,13.17,5.07,20.24L142.9,87.24l-2.67,5.58c-0.09-0.44-0.2-0.94-0.31-1.46
		c-0.29-1.37-0.59-2.78-0.77-3.55c0.64-0.18,1.28-0.38,1.92-0.57l1.32-0.39c0.3-0.09,0.6-0.17,0.9-0.27
		c1.83-0.59,3.45-1.16,4.98-1.73c0.14-0.05,0.28-0.11,0.42-0.17l0.16-0.07c1.43-0.55,2.82-1.11,4.11-1.68
		c0.32-0.15,0.64-0.29,0.96-0.44l1.33-0.62C155.61,81.71,155.97,81.54,156.32,81.37 M142.74,61.96c4.94,4.77,9,10.26,12.1,16.32
		c-0.58,0.28-1.17,0.55-1.76,0.84l-0.44,0.21c-0.35,0.17-0.69,0.33-1.05,0.49c-1.15,0.51-2.42,1.03-4,1.64l-0.24,0.1
		c-0.09,0.04-0.18,0.08-0.29,0.12c-1.47,0.55-3.05,1.1-4.82,1.67c-0.28,0.09-0.57,0.17-0.85,0.26l-1.08,0.32
		c-0.68,0.21-1.38,0.41-2.08,0.6c-0.23-0.77-0.48-1.53-0.73-2.28l-0.24-0.72c-0.08-0.23-0.14-0.46-0.22-0.7
		c-0.11-0.34-0.21-0.68-0.33-1.01c-0.67-1.95-1.34-3.73-2.02-5.43c-0.18-0.46-0.37-0.89-0.56-1.33c-0.64-1.53-1.17-2.74-1.68-3.81
		c-0.22-0.47-0.44-0.91-0.67-1.36l-0.57-1.16c-0.16-0.34-0.32-0.67-0.49-0.99l0.06-0.02c2.2-0.54,4.14-1.08,5.95-1.64l0.42-0.14
		c1.7-0.54,3.45-1.15,5.35-1.88C142.57,62.01,142.66,61.98,142.74,61.96 M115.48,103.67l-0.05-0.92c-0.11-1.9-0.22-3.78-0.35-5.64
		c-0.03-0.59-0.07-1.16-0.11-1.73l-0.24-3.17c0.72-0.07,1.42-0.15,2.13-0.23l1.51-0.17c0.44-0.04,0.87-0.09,1.31-0.14
		c2.2-0.28,4.13-0.55,5.95-0.86l0.28-0.06c1.78-0.3,3.61-0.65,5.44-1.03c0.44-0.09,0.86-0.19,1.29-0.29l1.59-0.36
		c0.54-0.12,1.08-0.24,1.62-0.37c0.21,0.81,0.42,1.63,0.63,2.45l0.11,0.41c0.04,0.18,0.33,1.82,0.57,3.13
		c0.25,1.38,0.41,2.33,0.49,2.72l-3.97,7.74l-5.92-2.93l-4.12,9.25c-1.66,1.55-4.31,2.98-7.75,1.27c-0.01-0.3-0.02-0.6-0.03-0.91
		c-0.03-0.71-0.05-1.43-0.07-2.13v-0.14C115.68,107.57,115.59,105.61,115.48,103.67 M82.36,88.48l-0.8-0.08
		c-0.32-0.03-0.63-0.07-0.94-0.11c-2.05-0.26-3.95-0.53-5.8-0.84c-0.07-0.01-0.13-0.03-0.2-0.04l-0.18-0.03
		c-1.78-0.3-3.54-0.63-5.23-0.99c-0.33-0.07-0.65-0.14-0.98-0.23c-0.28-0.06-0.55-0.13-0.83-0.19c-0.83-0.18-1.65-0.38-2.47-0.59
		c0.27-0.91,0.55-1.81,0.84-2.7l0.24-0.73c0.11-0.37,0.23-0.73,0.35-1.09c0.54-1.57,1.12-3.15,1.8-4.85l0.09-0.24
		c0.03-0.09,0.07-0.18,0.11-0.28c0.65-1.63,1.37-3.27,2.2-5.02c0.15-0.32,0.3-0.62,0.46-0.92l0.24-0.46
		c0.42-0.87,0.87-1.73,1.31-2.57c0.01,0,0.02,0,0.03,0.01l0.23,0.04c2.61,0.55,4.93,0.97,7.22,1.3c0.07,0.01,0.13,0.02,0.16,0.02h0
		c2.19,0.33,4.53,0.6,7.38,0.86c0.08,0.01,0.17,0.02,0.26,0.03c-0.09,0.57-0.18,1.16-0.27,1.74l-0.18,1.16
		c-0.05,0.32-0.1,0.65-0.15,0.98c-0.2,1.42-0.4,2.88-0.59,4.37c-0.05,0.37-0.1,0.73-0.15,1.12c-0.21,1.67-0.39,3.37-0.58,5.13
		l-0.25,2.44c-0.1,1.02-0.2,2.03-0.29,3.06C84.39,88.69,83.37,88.6,82.36,88.48 M85.1,92.22l-0.35,4.81
		c-0.28,4.05-0.51,8.28-0.69,12.55c-0.03,0.66-0.05,1.34-0.07,2l-0.03,1.17c-6.43,4.04-11.69-1.85-11.91-2.11l-0.25-0.28l-0.33,0.18
		c-0.06,0.04-6.53,3.54-11.41-1.5c0.04-0.34,0.08-0.67,0.12-1l0.07-0.62c0.06-0.36,0.1-0.73,0.15-1.1c0.04-0.31,0.08-0.63,0.12-0.93
		c0.33-2.23,0.66-4.21,1.01-6.04l0.25-1.19c0.37-1.89,0.69-3.4,1-4.75c0.1-0.4,0.2-0.79,0.3-1.18l0.2-0.81
		c0.23-0.91,0.46-1.81,0.7-2.71c0.52,0.13,1.05,0.25,1.58,0.37l1.61,0.37c0.43,0.1,0.86,0.2,1.29,0.29c1.8,0.38,3.65,0.74,5.51,1.05
		l0.24,0.04c1.79,0.31,3.73,0.59,5.92,0.86c0.41,0.05,0.84,0.1,1.27,0.14l1.45,0.16C83.62,92.06,84.36,92.15,85.1,92.22
		 M87.42,111.52c0.02-0.58,0.04-1.16,0.06-1.75c0.08-2.11,0.18-4.21,0.29-6.28l0.03-0.59c0.11-1.86,0.21-3.7,0.34-5.53l0.06-0.74
		c0.03-0.45,0.07-0.9,0.1-1.34c0.07-0.94,0.14-1.87,0.21-2.79c0.65,0.04,1.3,0.08,1.96,0.11l1.66,0.09
		c0.52,0.03,1.04,0.07,1.55,0.08c1.59,0.07,3.29,0.1,5.36,0.11l0.3,0.01c0.38,0.01,0.75,0.01,1.12,0l0.31-0.01
		c2.07-0.01,3.78-0.05,5.37-0.11c0.41-0.02,0.83-0.04,1.25-0.06l1.65-0.09c0.75-0.03,1.5-0.07,2.26-0.12
		c0.07,0.9,0.14,1.82,0.2,2.75c0.06,0.63,0.1,1.27,0.14,1.91l0.02,0.23c0.13,1.86,0.24,3.73,0.35,5.62l0.03,0.49
		c0.11,2.08,0.21,4.17,0.29,6.31c0.02,0.4,0.03,0.8,0.04,1.2l0.04,1.25c0.01,0.36,0.02,0.72,0.04,1.08
		c-5.86,4.22-11.79-0.04-12.04-0.22l-0.29-0.21l-0.27,0.22c-0.07,0.05-6.18,4.8-12.5-0.01L87.42,111.52z M88.81,89.08
		c0.08-0.92,0.16-1.82,0.26-2.72l0.04-0.47c0.05-0.57,0.1-1.14,0.17-1.68c0.2-1.95,0.41-3.86,0.65-5.72l0.05-0.37
		c0.21-1.71,0.44-3.38,0.68-4.99c0.05-0.42,0.12-0.81,0.18-1.21l0.14-0.88c0.1-0.68,0.2-1.34,0.31-2c0.54,0.03,1.09,0.06,1.64,0.08
		l2.16,0.11c1.52,0.05,3.03,0.08,4.55,0.08l0.28,0l0.27,0c1.52,0,3.03-0.03,4.56-0.08l2.16-0.11c0.54-0.02,1.09-0.04,1.63-0.08
		c0.12,0.74,0.24,1.49,0.35,2.26c0.1,0.54,0.18,1.06,0.26,1.6l0.03,0.22c0.23,1.62,0.46,3.29,0.67,5l0.02,0.14
		c0.01,0.07,0.02,0.14,0.03,0.23c0.23,1.85,0.45,3.75,0.66,5.7c0.06,0.68,0.13,1.39,0.2,2.17c0.09,0.9,0.17,1.79,0.25,2.7
		c-1.03,0.08-2.06,0.13-3.09,0.18c-0.27,0.01-0.56,0.03-0.84,0.05c-0.34,0.02-0.69,0.05-1.04,0.06c-4.08,0.17-8.22,0.17-12.3,0
		c-0.32-0.02-0.65-0.03-0.98-0.05c-0.29-0.02-0.59-0.04-0.88-0.05C90.87,89.21,89.84,89.15,88.81,89.08 M112.34,71.11l-0.18-1.16
		c-0.06-0.39-0.12-0.79-0.18-1.17c0.09-0.01,0.17-0.02,0.26-0.03c2.83-0.25,5.17-0.53,7.33-0.85c0.07,0,0.14-0.02,0.31-0.04
		c2.24-0.33,4.57-0.75,7.12-1.3l0.24-0.04h0.02c0.44,0.83,0.88,1.68,1.3,2.54l0.31,0.6c0.13,0.26,0.27,0.52,0.4,0.8
		c0.81,1.73,1.53,3.37,2.2,5.03c0.03,0.08,0.07,0.17,0.1,0.25l0.09,0.24c0.52,1.32,1.2,3.07,1.8,4.89c0.14,0.42,0.28,0.85,0.42,1.28
		l0.16,0.5c0.29,0.9,0.58,1.81,0.86,2.74c-0.81,0.2-1.64,0.39-2.46,0.58l-0.48,0.11c-0.44,0.11-0.88,0.21-1.34,0.31
		c-1.66,0.35-3.34,0.67-5.17,0.98l-0.2,0.04c-0.08,0.02-0.15,0.04-0.24,0.05c-1.63,0.28-3.47,0.54-5.78,0.84l-0.76,0.08
		c-0.33,0.03-0.65,0.06-0.98,0.1c-1.01,0.12-2.03,0.22-3.05,0.31c-0.1-1.04-0.2-2.06-0.31-3.08l-0.05-0.62
		c-0.03-0.42-0.07-0.83-0.12-1.23c-0.2-1.95-0.42-3.86-0.64-5.72c-0.05-0.37-0.09-0.72-0.15-1.07c-0.19-1.5-0.39-2.99-0.6-4.42
		l-0.1-0.62C112.43,71.73,112.38,71.43,112.34,71.11 M139.89,59.37c-1.78,0.65-3.32,1.17-4.82,1.62c-0.12,0.04-0.25,0.07-0.37,0.11
		l-0.36,0.1c-1.63,0.48-3.32,0.93-5.01,1.34c-0.11,0.02-0.22,0.05-0.33,0.08c-0.02-0.03-0.04-0.07-0.06-0.1l-0.19-0.31
		c-0.34-0.58-0.69-1.16-1.09-1.79c-0.22-0.34-0.43-0.69-0.65-1.03c-0.35-0.53-0.71-1.06-1.06-1.56l-0.13-0.18
		c-0.2-0.29-0.4-0.57-0.6-0.85c-0.32-0.44-0.65-0.86-0.97-1.28l-0.16-0.2c-0.15-0.2-0.31-0.4-0.47-0.6l-0.24-0.31
		c-0.39-0.47-0.79-0.93-1.19-1.39l-0.16-0.18c-0.1-0.11-0.19-0.22-0.29-0.33c-0.08-0.1-0.16-0.19-0.24-0.29
		c-0.68-0.73-1.31-1.39-1.93-1.99c-0.06-0.07-0.13-0.13-0.2-0.19l-0.17-0.16c-0.54-0.51-1.08-1-1.63-1.46
		c-0.11-0.1-0.23-0.19-0.34-0.28c-0.11-0.09-0.22-0.18-0.34-0.28c-0.45-0.36-0.9-0.72-1.35-1.05c-0.12-0.09-0.24-0.18-0.36-0.27
		C124.25,48.87,132.74,53.27,139.89,59.37 M109.72,47.19l0.11,0.05c0.13,0.07,0.26,0.13,0.39,0.21c0.92,0.51,1.73,1.01,2.46,1.51
		c0.15,0.1,0.3,0.21,0.45,0.33c0.77,0.54,1.52,1.12,2.28,1.78l0.26,0.22c0.71,0.62,1.46,1.34,2.38,2.27c0.1,0.1,0.2,0.2,0.29,0.3
		l0.21,0.23c0.83,0.89,1.57,1.74,2.26,2.61c0.1,0.11,0.18,0.23,0.32,0.42c0.67,0.85,1.33,1.74,2.01,2.71l0.19,0.26
		c0.07,0.1,0.14,0.19,0.21,0.29c0.58,0.85,1.19,1.79,1.94,3.01l-0.07,0.01c-2.34,0.48-4.51,0.87-6.62,1.17
		c-0.15,0.02-0.31,0.03-0.5,0.05c-1.96,0.29-4.12,0.53-6.61,0.75l-0.31,0.03l-0.06-0.29c-0.15-0.79-0.29-1.56-0.44-2.32l-0.47-2.24
		c-0.09-0.42-0.18-0.84-0.28-1.29c-0.07-0.26-0.13-0.55-0.19-0.81c-0.23-0.96-0.46-1.87-0.7-2.77l-0.26-0.93
		c-0.16-0.57-0.31-1.12-0.48-1.64l-0.33-1.03c-0.1-0.32-0.21-0.62-0.31-0.92l-0.27-0.76c-0.07-0.21-0.15-0.41-0.22-0.6
		c-0.13-0.36-0.28-0.71-0.43-1.05l-0.09-0.21c-0.19-0.45-0.38-0.88-0.57-1.28c-0.17-0.34-0.33-0.69-0.5-1
		c-0.11-0.21-0.23-0.41-0.34-0.61l-0.1-0.18c-0.01-0.02-0.02-0.04-0.03-0.05C106.81,45.85,108.28,46.44,109.72,47.19 M94.78,53.53
		c0.11-0.37,0.23-0.73,0.37-1.14l0.29-0.81c0.1-0.28,0.2-0.54,0.31-0.82c0.03-0.09,0.07-0.18,0.1-0.26l0.07-0.17
		c0.13-0.33,0.26-0.66,0.42-1.01c0.02-0.08,0.06-0.15,0.09-0.21l0.15-0.34c0.1-0.23,0.2-0.44,0.32-0.68
		c0.03-0.06,0.06-0.11,0.09-0.16c0.14-0.28,0.29-0.56,0.44-0.8l0.07-0.12c0.14-0.24,0.29-0.48,0.44-0.68l0.05-0.06
		c0.97-1.4,1.65-1.61,1.96-1.61c0.07,0,0.17,0.02,0.29,0.05c0.05,0.02,0.09,0.05,0.2,0.1c0.04,0.02,0.08,0.04,0.12,0.06l0.18,0.12
		c0.06,0.05,0.12,0.1,0.19,0.16l0.16,0.15c0.05,0.05,0.1,0.1,0.11,0.11c0.05,0.05,0.1,0.1,0.15,0.15c0.03,0.04,0.07,0.07,0.11,0.12
		c0.05,0.05,0.09,0.12,0.14,0.18l0.14,0.18c0.08,0.1,0.15,0.19,0.22,0.28l0.12,0.2c0.05,0.09,0.11,0.18,0.15,0.24l0.11,0.17
		c0.04,0.06,0.08,0.13,0.13,0.23c0.1,0.17,0.22,0.37,0.36,0.64c0.06,0.12,0.12,0.22,0.18,0.38c0.09,0.16,0.17,0.34,0.25,0.52
		l0.31,0.69c0.06,0.14,0.13,0.29,0.19,0.45c0.05,0.13,0.1,0.25,0.15,0.35c0.07,0.2,0.15,0.4,0.26,0.67c0.1,0.27,0.21,0.57,0.31,0.87
		c0.08,0.23,0.16,0.44,0.24,0.68c0.12,0.34,0.23,0.69,0.34,1.04c0.07,0.26,0.16,0.51,0.24,0.77l0.34,1.21
		c0.08,0.28,0.16,0.55,0.24,0.84l0.36,1.34c0.07,0.31,0.14,0.62,0.23,0.94c0.07,0.25,0.13,0.51,0.19,0.78l0.15,0.63
		c0.06,0.28,0.12,0.55,0.18,0.83l0.06,0.24c0.06,0.26,0.12,0.53,0.17,0.8l0.16,0.73c0.06,0.3,0.12,0.6,0.18,0.91l0.09,0.48
		c0.09,0.47,0.19,0.96,0.28,1.48c0.02,0.06,0.03,0.13,0.04,0.19c-0.08,0-0.17,0.01-0.25,0.02c-2.84,0.17-5.37,0.24-7.83,0.24
		c-2.37,0-4.9-0.08-7.73-0.24c-0.09-0.01-0.18-0.02-0.26-0.02c0.01-0.07,0.02-0.14,0.03-0.21l0.32-1.66
		c0.07-0.34,0.14-0.67,0.21-0.99l0.05-0.21c0.09-0.49,0.2-0.97,0.32-1.54c0.06-0.26,0.11-0.51,0.17-0.76l0.07-0.31
		c0.1-0.45,0.21-0.9,0.34-1.43c0.04-0.2,0.09-0.39,0.14-0.58l0.21-0.81c0.08-0.3,0.16-0.6,0.24-0.88l0.23-0.81
		c0.12-0.42,0.24-0.84,0.38-1.3C94.64,53.95,94.7,53.75,94.78,53.53 M87.17,48.95c0.8-0.55,1.62-1.06,2.43-1.5
		c0.15-0.09,0.31-0.17,0.47-0.25l0.08-0.04c0.9-0.47,1.72-0.84,2.56-1.17c0.56-0.21,1.14-0.4,1.78-0.57
		c-0.05,0.1-0.11,0.19-0.17,0.29l-0.1,0.17c-0.05,0.1-0.11,0.19-0.15,0.28c-0.29,0.52-0.57,1.08-0.87,1.78
		c-0.28,0.6-0.53,1.26-0.8,1.95l-0.06,0.17c-0.07,0.18-0.14,0.38-0.2,0.55c-0.18,0.5-0.35,1.01-0.54,1.56l-0.27,0.88
		c-0.18,0.58-0.36,1.18-0.53,1.83l-0.23,0.79c-0.24,0.88-0.47,1.82-0.7,2.79c-0.06,0.25-0.12,0.54-0.17,0.78
		c-0.18,0.76-0.35,1.55-0.52,2.35c-0.06,0.27-0.11,0.54-0.17,0.81l-0.08,0.39c-0.15,0.76-0.29,1.52-0.44,2.3l-0.06,0.3l-0.31-0.03
		c-2.5-0.22-4.66-0.47-6.67-0.76c-0.15-0.01-0.29-0.03-0.42-0.04c-2.15-0.31-4.31-0.7-6.64-1.17c-0.02,0-0.04-0.01-0.05-0.01
		c0.66-1.09,1.3-2.1,1.92-3.01l0.39-0.56c0.69-0.98,1.34-1.86,2.02-2.71l0.07-0.1c0.09-0.11,0.18-0.23,0.26-0.34
		c0.69-0.85,1.43-1.7,2.26-2.59L81.37,54c0.15-0.15,0.29-0.31,0.44-0.46c0.79-0.82,1.58-1.58,2.33-2.23l0.32-0.26
		c0.7-0.6,1.45-1.19,2.25-1.75C86.85,49.18,87.01,49.06,87.17,48.95 M84.66,46.55c-0.12,0.08-0.24,0.18-0.36,0.26
		c-0.47,0.34-0.93,0.7-1.37,1.07L82.78,48c-0.18,0.14-0.36,0.28-0.52,0.42c-0.57,0.49-1.13,1-1.72,1.56
		c-0.1,0.08-0.19,0.16-0.27,0.25c-0.61,0.59-1.25,1.25-1.95,2.02l-0.23,0.26c-0.07,0.09-0.15,0.18-0.24,0.28l-0.31,0.35
		c-0.37,0.43-0.74,0.86-1.11,1.31l-0.13,0.17c-0.17,0.22-0.35,0.44-0.51,0.66c-0.39,0.5-0.79,1.02-1.18,1.56
		c-0.23,0.32-0.46,0.64-0.7,0.97c-0.36,0.52-0.73,1.06-1.09,1.61c-0.23,0.34-0.45,0.69-0.68,1.05c-0.36,0.57-0.71,1.16-1.1,1.83
		c-0.07,0.11-0.13,0.21-0.2,0.32c-0.12-0.03-0.23-0.05-0.32-0.07c-1.75-0.42-3.44-0.88-5.01-1.34l-0.75-0.21
		c-1.48-0.45-3.06-0.98-4.81-1.61C67.1,53.28,75.58,48.88,84.66,46.55 M57.09,61.96l0.03,0.01c0.08,0.02,0.16,0.05,0.24,0.08
		c1.99,0.76,3.69,1.36,5.31,1.86c0.14,0.06,0.28,0.1,0.44,0.15c1.81,0.56,3.74,1.1,5.9,1.63l-0.15,0.21h0.15
		c-0.17,0.32-0.32,0.65-0.48,0.98l-0.53,1.07c-0.21,0.42-0.42,0.84-0.63,1.28c-0.54,1.16-1.11,2.46-1.74,3.98
		c-0.08,0.18-0.15,0.36-0.23,0.53c-0.09,0.2-0.18,0.41-0.27,0.62c-0.68,1.68-1.35,3.47-2.03,5.48c-0.11,0.31-0.2,0.62-0.3,0.93
		l-0.2,0.64c-0.34,1.03-0.68,2.05-1,3.11c-0.83-0.23-1.65-0.47-2.46-0.72l-0.56-0.16c-0.33-0.1-0.67-0.2-0.99-0.3
		c-1.69-0.54-3.31-1.1-4.83-1.67c-0.1-0.03-0.18-0.07-0.27-0.11l-0.2-0.08c-1.46-0.56-2.79-1.1-4.06-1.66
		c-0.29-0.13-0.57-0.26-0.86-0.39l-0.61-0.29c-0.6-0.28-1.2-0.57-1.79-0.85C48.08,72.22,52.15,66.73,57.09,61.96 M43.51,81.37
		c0.39,0.19,0.8,0.38,1.21,0.56l1.06,0.5c0.36,0.17,0.72,0.34,1.1,0.51c1.29,0.56,2.63,1.11,3.99,1.63l0.71,0.29
		c1.55,0.58,3.22,1.15,4.97,1.71c0.29,0.1,0.6,0.18,0.91,0.27l1.35,0.41c0.62,0.19,1.24,0.38,1.87,0.56
		c-0.16,0.61-0.31,1.22-0.46,1.84l-0.42,1.69c-0.11,0.41-0.21,0.83-0.31,1.25c-0.46,1.95-0.88,3.96-1.27,5.98l-0.11,0.68
		c-0.39,2.13-0.69,3.89-0.92,5.51c-0.06,0.41-0.11,0.83-0.17,1.25l-0.24,1.79c-5.78,2.43-9.65-3.34-9.82-3.59l-0.2-0.3l-0.34,0.11
		c-0.18,0.06-4.39,1.37-7.95-2.34C39.02,94.54,40.71,87.71,43.51,81.37 M43.49,112.7c-1.58-0.25-2.92-0.34-4.77-1.57
		c0,0-0.21-1.19-0.21-2.04c0-0.85-0.02-2.13-0.02-2.13c2.16,1.72,4.92,2.03,6.11,2.15l0.78,0.08l0.48,0.6
		c0.15,0.2,3.95,4.7,10.75,3.07l1.08-0.25l0.73,0.83c4.49,5.02,12.19,2.92,12.26,2.9l0.92-0.27l0.75,0.6
		c0.23,0.19,5.77,4.48,12.23,1.39l0.98-0.48l0.89,0.64c6.06,4.3,13.21,0.95,13.28,0.91l0.83-0.4l0.84,0.44
		c0.27,0.13,7,3.56,12.85-1.05l0.71-0.56l0.89,0.22c1.37,0.33,3.03,0.55,3.47,0.44c0,0,1.24-0.08,2-0.5l-1.78,4.02
		c-0.82,0.2-2.08,0.2-3.71-0.16c-2.88,2.01-5.87,2.66-8.47,2.66c-3.08,0-5.61-0.88-6.86-1.41c-2.33,0.89-9.03,2.85-15.31-1
		c-6.66,2.67-12.38-0.38-14.4-1.71c-2.46,0.51-9.39,1.33-14.38-3.42C49.42,117.93,44.96,114.2,43.49,112.7 M99.92,168.07
		c-13.3,0-25.63-4.24-35.72-11.42l11.1-6.07l8.26,4.05l15.7-12.76l13.74,3.29l16.7-37.46l5.78,3l8.81-16.87
		c1.36,1.04,7.59,5.86,17.35,13.38C161.17,140.85,133.67,168.07,99.92,168.07"/>
	<path class="st3" d="M99.92,175.54c-38.18,0-69.24-31.06-69.24-69.24s31.06-69.24,69.24-69.24s69.24,31.06,69.24,69.24
		S138.1,175.54,99.92,175.54z M99.92,40.46c-36.31,0-65.84,29.54-65.84,65.84c0,36.31,29.54,65.84,65.84,65.84
		c36.31,0,65.84-29.54,65.84-65.84C165.76,69.99,136.23,40.46,99.92,40.46z"/>
</g>
</svg>
