<?xml version="1.0" encoding="utf-8"?>
<!-- Generator: Adobe Illustrator 24.1.2, SVG Export Plug-In . SVG Version: 6.00 Build 0)  -->
<svg version="1.1" id="Capa_1" xmlns="http://www.w3.org/2000/svg" xmlns:xlink="http://www.w3.org/1999/xlink" x="0px" y="0px"
	 viewBox="0 0 512 273" style="enable-background:new 0 0 512 273;" xml:space="preserve">
<style type="text/css">
	.st0{fill:#0099ff;}
</style>
<g>
	<path class="st0" d="M512,17c0,8.3-6.7,14.9-15,14.9h-0.2c-9.2,0-17.8,4.1-23.6,11.3L456,64.4c-9,11.2-22.4,18-36.8,18.7
		c-14.3,0.7-28.3-4.8-38.4-15l-26.4-26.8c-7.7-7.9-20.6-8.1-28.6-0.5l-34.4,32.4c-9.1,8.6-20.8,13.4-33.2,13.7c-0.5,0-0.9,0-1.3,0
		c-0.3,0-0.5,0-0.8,0c-13.2-0.2-25.6-5.5-34.9-14.8l-29.8-29.9c-3.9-3.9-9.1-6-14.6-6c-5.5,0-10.7,2.2-14.5,6.2l-25.7,26.6
		c-9.7,10-23.3,15.6-37.2,15.4c-14-0.3-27.3-6.4-36.6-16.8L38.3,40.1C32.6,33.7,24.4,30,15.7,30h-0.4c-8.3,0-15-6.7-15-15
		c0-8.3,6.7-15,15-15h0.4c17.2,0,33.6,7.3,45,20.1l24.4,27.3c3.8,4.3,9.1,6.7,14.8,6.8c5.7,0.1,11.1-2.1,15.1-6.2l25.7-26.6
		c9.5-9.8,22.2-15.3,35.9-15.4c13.7-0.1,26.5,5.2,36.1,14.8l29.8,29.9c4.4,4.4,10.2,6.4,15.8,6c4.6-0.3,9.1-2.2,12.7-5.6l34.4-32.4
		c9.7-9.1,22.3-14,35.6-13.7c13.3,0.3,25.7,5.6,35,15.1L402.2,47c4.1,4.2,9.7,6.4,15.6,6.1c5.9-0.3,11.2-3,14.9-7.6l17.2-21.2
		C461.4,10,478.5,1.9,496.8,1.9h0.3C505.3,1.9,512,8.7,512,17z"/>
	<path class="st0" d="M512,110.9c0,8.3-6.7,14.9-15,14.9h-0.2c-9.2,0-17.8,4.1-23.6,11.3l-17.2,21.2c-9,11.2-22.4,18-36.8,18.7
		s-28.3-4.8-38.4-15l-26.4-26.8c-7.7-7.9-20.6-8.1-28.6-0.5L291.6,167c-9.2,8.7-21.2,13.6-33.9,13.7c-0.2,0-0.5,0-0.7,0
		c-0.3,0-0.5,0-0.8,0c-13.2-0.2-25.6-5.5-34.9-14.8L191.5,136c-3.9-3.9-9.1-6.1-14.6-6c-5.5,0-10.7,2.2-14.5,6.2l-25.7,26.6
		c-9.7,10-23.3,15.6-37.3,15.4c-14-0.3-27.3-6.4-36.6-16.8L38.4,134c-5.7-6.4-14-10.1-22.6-10.1h-0.4c-8.3,0-15-6.7-15-15
		c0-8.3,6.7-15,15-15h0.4c17.2,0,33.6,7.3,45,20.1l24.3,27.3c3.8,4.3,9.1,6.7,14.8,6.8c5.8,0.1,11.1-2.1,15.1-6.2l25.7-26.6
		c9.5-9.8,22.2-15.3,35.9-15.4c13.7-0.1,26.5,5.2,36.1,14.8l29.8,29.9c4.2,4.2,9.7,6.2,15.2,6.1c4.8-0.2,9.5-2,13.3-5.6l34.4-32.4
		c9.7-9.1,22.3-14,35.6-13.7c13.3,0.3,25.7,5.6,35,15.1l26.4,26.8c4.1,4.2,9.7,6.4,15.6,6.1c5.9-0.3,11.2-3,14.9-7.6l17.2-21.2
		c11.5-14.2,28.6-22.4,46.9-22.4h0.3C505.4,95.9,512,102.6,512,110.9z"/>
	<path class="st0" d="M511.6,203.1c0,8.3-6.7,14.9-15,14.9h-0.2c-9.2,0-17.8,4.1-23.6,11.3l-17.2,21.2c-9,11.2-22.4,18-36.8,18.7
		c-14.3,0.7-28.3-4.8-38.4-15l-26.4-26.8c-7.7-7.9-20.6-8.1-28.6-0.5l-34.4,32.4c-9,8.5-20.6,13.3-32.9,13.7c-0.5,0-1.1,0-1.7,0
		c-0.3,0-0.5,0-0.8,0c-13.2-0.2-25.6-5.5-34.9-14.8l-29.8-29.9c-3.9-3.9-9-6-14.5-6h-0.1c-5.5,0-10.7,2.2-14.5,6.2L136.2,255
		c-9.7,10-23.3,15.6-37.2,15.3c-14-0.3-27.3-6.4-36.6-16.8L38,226.3c-5.8-6.4-14-10.1-22.6-10.1H15c-8.3,0-15-6.7-15-15
		c0-8.3,6.7-15,15-15h0.4c17.2,0,33.6,7.3,45,20.1l24.3,27.3c3.8,4.3,9.1,6.7,14.8,6.8c5.8,0.1,11.1-2.1,15.1-6.2l25.7-26.6
		c9.5-9.8,22.2-15.3,35.9-15.4c13.7-0.1,26.5,5.2,36.1,14.8l29.8,29.9c4.4,4.5,10.4,6.5,16.2,6c4.5-0.4,8.8-2.2,12.4-5.5L305,205
		c9.7-9.1,22.3-14,35.6-13.7c13.3,0.3,25.7,5.6,35,15.1l26.4,26.8c4.1,4.2,9.7,6.4,15.6,6.1c5.9-0.3,11.2-3,14.9-7.6l17.2-21.2
		c11.5-14.2,28.6-22.4,46.9-22.4h0.3C505,188.1,511.7,194.8,511.6,203.1z"/>
</g>
<g>
	<path class="st0" d="M511.6,203.1c0,8.3-6.7,14.9-15,14.9h-0.2c-9.2,0-17.8,4.1-23.6,11.3l-17.2,21.2c-9,11.2-22.4,18-36.8,18.7
		c-14.3,0.7-28.3-4.8-38.4-15l-26.4-26.8c-7.7-7.9-20.6-8.1-28.6-0.5l-34.4,32.4c-9,8.5-20.6,13.3-32.9,13.7v-30
		c4.5-0.4,8.8-2.2,12.4-5.5L305,205c9.7-9.1,22.3-14,35.6-13.7c13.3,0.3,25.7,5.6,35,15.1l26.4,26.8c4.1,4.2,9.7,6.4,15.6,6.1
		c5.9-0.3,11.2-3,14.9-7.6l17.2-21.2c11.5-14.2,28.6-22.4,46.9-22.4h0.3C505,188.1,511.7,194.8,511.6,203.1z"/>
	<path class="st0" d="M291.5,73.1c-9.1,8.6-20.8,13.4-33.2,13.7v-30c4.6-0.3,9.1-2.2,12.7-5.6l34.4-32.4c9.7-9.1,22.3-14,35.6-13.7
		c13.3,0.3,25.7,5.6,35,15.1L402.2,47c4.1,4.2,9.7,6.4,15.6,6.1c5.9-0.3,11.2-3,14.9-7.6l17.2-21.2C461.4,10,478.5,1.9,496.8,1.9
		h0.3c8.3,0,15,6.8,14.9,15.1c0,8.3-6.7,14.9-15,14.9h-0.2c-9.2,0-17.8,4.1-23.6,11.3L456,64.4c-9,11.2-22.4,18-36.8,18.7
		c-14.3,0.7-28.3-4.8-38.4-15l-26.4-26.8c-7.7-7.9-20.6-8.1-28.6-0.5L291.5,73.1z"/>
	<path class="st0" d="M291.6,167c-9.2,8.7-21.2,13.6-33.9,13.7v-29.9c4.8-0.2,9.5-2,13.3-5.6l34.4-32.4c9.7-9.1,22.3-14,35.6-13.7
		c13.3,0.3,25.7,5.6,35,15.1l26.4,26.8c4.1,4.2,9.7,6.4,15.6,6.1c5.9-0.3,11.2-3,14.9-7.6l17.2-21.2c11.5-14.2,28.6-22.4,46.9-22.4
		h0.3c8.3,0,15,6.8,14.9,15.1c0,8.3-6.7,14.9-15,14.9h-0.2c-9.2,0-17.8,4.1-23.6,11.3l-17.2,21.2c-9,11.2-22.4,18-36.8,18.7
		s-28.3-4.8-38.4-15l-26.4-26.8c-7.7-7.9-20.6-8.1-28.6-0.5L291.6,167z"/>
</g>
</svg>
